<svg width="41" height="40" viewBox="0 0 41 40" fill="none" xmlns="http://www.w3.org/2000/svg">
<g clip-path="url(#clip0_1_4419)">
<path d="M26.4184 21.6602L23.0683 25.0216C21.7098 26.3848 19.3195 26.4142 17.9316 25.0216L14.5813 21.6602L2.54883 33.7317C2.99672 33.9388 3.49055 34.0624 4.01555 34.0624H36.9843C37.5093 34.0624 38.003 33.939 38.4507 33.7318L26.4184 21.6602Z" fill="#2390FF"/>
<path d="M36.9841 5.9375H4.01539C3.49039 5.9375 2.99656 6.06109 2.54883 6.2682L15.4064 19.1684C15.4073 19.1693 15.4083 19.1695 15.4091 19.1703C15.41 19.1712 15.4102 19.1723 15.4102 19.1723L19.5909 23.3669C20.0349 23.8109 20.9648 23.8109 21.4088 23.3669L25.5887 19.173C25.5887 19.173 25.5897 19.1712 25.5905 19.1703C25.5905 19.1703 25.5924 19.1693 25.5933 19.1684L38.4505 6.26813C38.0028 6.06094 37.5091 5.9375 36.9841 5.9375Z" fill="#2390FF"/>
<path d="M0.873906 7.90723C0.642187 8.37582 0.5 8.89598 0.5 9.45316V30.5469C0.5 31.1041 0.642031 31.6243 0.873828 32.0928L12.9272 20.0004L0.873906 7.90723Z" fill="#2390FF"/>
<path d="M40.1264 7.90698L28.0732 20.0003L40.1264 32.0929C40.3582 31.6243 40.5004 31.1042 40.5004 30.5468V9.45308C40.5004 8.89573 40.3582 8.37558 40.1264 7.90698Z" fill="#2390FF"/>
</g>
<defs>
<clipPath id="clip0_1_4419">
<rect width="40" height="40" fill="white" transform="translate(0.5)"/>
</clipPath>
</defs>
</svg>
