<svg width="51" height="50" viewBox="0 0 51 50" fill="none" xmlns="http://www.w3.org/2000/svg">
<path d="M43.1428 38.999C43.0064 38.999 42.871 38.9803 42.7284 38.9606L42.5664 38.9389L42.5161 38.9586C42.4433 38.9862 42.3807 39 42.3212 39H36.5774C36.2379 39 35.962 38.7348 35.962 38.4085C35.962 38.0821 36.2379 37.8169 36.5774 37.8169H40.2986L40.0473 37.5005C39.5221 36.838 39.2442 36.0611 39.2442 35.2536V35.0565H19.1418V35.2536C19.1418 36.0502 18.8638 36.8271 18.3376 37.5015L18.0915 37.8169H20.1675C20.507 37.8169 20.7829 38.0821 20.7829 38.4085C20.7829 38.7348 20.507 39 20.1675 39H10.3209C9.98139 39 9.70548 38.7348 9.70548 38.4085C9.70548 38.0821 9.98139 37.8169 10.3209 37.8169H12.401L12.1497 37.5005C11.6245 36.838 11.3466 36.0611 11.3466 35.2536V35.0565H8.67979C7.88797 35.0565 7.24383 34.4373 7.24383 33.6762V31.3101C7.24383 30.9838 7.51974 30.7186 7.85925 30.7186H8.06438V28.7468H7.85925C7.51974 28.7468 7.24383 28.4816 7.24383 28.1553C7.24383 27.829 7.51974 27.5638 7.85925 27.5638H13.6031C13.9426 27.5638 14.2185 27.829 14.2185 28.1553C14.2185 28.4816 13.9426 28.7468 13.6031 28.7468H9.29521V30.7186H32.6808V12.1831H9.29521V13.3661H11.962C12.3015 13.3661 12.5774 13.6313 12.5774 13.9576C12.5774 14.284 12.3015 14.5492 11.962 14.5492H2.11541C1.77591 14.5492 1.5 14.284 1.5 13.9576C1.5 13.6313 1.77591 13.3661 2.11541 13.3661H8.06438V11.5915C8.06438 11.2652 8.34029 11 8.67979 11H33.2962C33.6357 11 33.9116 11.2652 33.9116 11.5915V15.7322H41.4197C42.6884 15.7322 43.8454 16.4992 44.2967 17.6399L44.3049 17.6577C44.3049 17.6577 44.3049 17.6636 44.3059 17.6655L44.308 17.6754L46.6948 23.9781L46.7071 24.0186L46.9348 24.615L47.7615 25.1474C48.8507 25.8424 49.5 27.0077 49.5 28.2647V32.0978C49.5 33.4446 48.5482 34.6178 47.185 34.951L47.0302 34.9884V35.1413C47.0302 35.1689 47.0322 35.1935 47.0353 35.2182C47.0363 35.229 47.0384 35.2398 47.0384 35.2517C47.0384 37.3171 45.2896 38.998 43.1408 38.998L43.1428 38.999ZM43.1428 32.6894C41.672 32.6894 40.476 33.8389 40.476 35.2527C40.476 36.6664 41.672 37.816 43.1428 37.816C44.6136 37.816 45.8096 36.6664 45.8096 35.2527C45.8096 33.8389 44.6136 32.6894 43.1428 32.6894ZM15.2442 32.6894C13.7733 32.6894 12.5774 33.8389 12.5774 35.2527C12.5774 36.6664 13.7733 37.816 15.2442 37.816C16.715 37.816 17.911 36.6664 17.911 35.2527C17.911 33.8389 16.715 32.6894 15.2442 32.6894ZM17.5591 32.2566C18.1151 32.6539 18.5489 33.1715 18.8146 33.7551L18.8679 33.8734H39.518L39.5724 33.7561C40.1929 32.4114 41.6279 31.5073 43.1428 31.5073C44.6577 31.5073 46.0383 32.366 46.6732 33.696L46.746 33.8488L46.9153 33.8034C47.6589 33.6013 48.1779 33.0098 48.26 32.296H48.2712L48.2794 32.0988V28.2657C48.2794 27.406 47.8343 26.6075 47.0886 26.1303L46.0875 25.4915C45.9737 25.4185 45.8886 25.317 45.8475 25.2046L45.7009 24.8043H43.1428C41.4463 24.8043 40.0658 23.4773 40.0658 21.8467V16.9153H33.9116V31.3091C33.9116 31.6355 33.6357 31.9007 33.2962 31.9007H17.0607L17.5581 32.2566H17.5591ZM11.6204 33.8724L11.6738 33.7541C11.9353 33.1794 12.3702 32.6608 12.9302 32.2556L13.4195 31.9007H8.47363V33.8724H11.6204ZM41.2802 21.8526C41.2802 22.8316 42.1089 23.6272 43.1264 23.6272H45.2321L43.151 18.119V17.9248H43.071C42.7766 17.3451 42.1725 16.9567 41.4956 16.9232L41.2802 16.9123V21.8526Z" fill="#2EAEAC"/>
<path d="M23.4501 38.999C23.1106 38.999 22.8347 38.7338 22.8347 38.4075C22.8347 38.0811 23.1106 37.8159 23.4501 37.8159H25.0912C25.4307 37.8159 25.7066 38.0811 25.7066 38.4075C25.7066 38.7338 25.4307 38.999 25.0912 38.999H23.4501Z" fill="#2EAEAC"/>
<path d="M14.4234 14.5492C14.0839 14.5492 13.808 14.284 13.808 13.9577C13.808 13.6313 14.0839 13.3661 14.4234 13.3661H15.244C15.5835 13.3661 15.8594 13.6313 15.8594 13.9577C15.8594 14.284 15.5835 14.5492 15.244 14.5492H14.4234Z" fill="#2EAEAC"/>
<path d="M2.9367 26.3797C2.59719 26.3797 2.32129 26.1145 2.32129 25.7882C2.32129 25.4619 2.59719 25.1967 2.9367 25.1967H8.06512V16.3238C8.06512 15.9974 8.34103 15.7322 8.68053 15.7322C9.02003 15.7322 9.29594 15.9974 9.29594 16.3238V25.1967H10.3216C10.6611 25.1967 10.937 25.4619 10.937 25.7882C10.937 26.1145 10.6611 26.3797 10.3216 26.3797H2.9367Z" fill="#2EAEAC"/>
<path d="M17.7067 24.0136C17.3672 24.0136 17.0913 23.7484 17.0913 23.4221V18.6899C17.0913 18.3636 17.3672 18.0984 17.7067 18.0984H18.9375C19.956 18.0984 20.7838 18.894 20.7838 19.8729C20.7838 20.637 20.276 21.3133 19.5211 21.5549L19.2063 21.6554L20.6063 23.0011C20.7222 23.1125 20.7858 23.2604 20.7858 23.4182C20.7858 23.5759 20.7222 23.7228 20.6063 23.8352C20.4853 23.9456 20.3325 24.0058 20.1683 24.0058C19.996 24.0058 19.8483 23.9486 19.7304 23.8352L18.3221 22.4816V23.4231C18.3221 23.7494 18.0462 24.0146 17.7067 24.0146V24.0136ZM18.3221 20.4645H18.9375C19.2822 20.4645 19.5529 20.2042 19.5529 19.8729C19.5529 19.5417 19.2822 19.2814 18.9375 19.2814H18.3221V20.4645Z" fill="#2EAEAC"/>
<path d="M12.7827 24.0136C12.4432 24.0136 12.1673 23.7484 12.1673 23.4221V18.6899C12.1673 18.3636 12.4432 18.0984 12.7827 18.0984H15.2444C15.5839 18.0984 15.8598 18.3636 15.8598 18.6899C15.8598 19.0162 15.5839 19.2814 15.2444 19.2814H13.3982V20.4645H14.4238C14.7633 20.4645 15.0392 20.7297 15.0392 21.056C15.0392 21.3823 14.7633 21.6475 14.4238 21.6475H13.3982V23.4221C13.3982 23.7484 13.1222 24.0136 12.7827 24.0136Z" fill="#2EAEAC"/>
<path d="M27.5527 24.0136C27.2132 24.0136 26.9373 23.7484 26.9373 23.4221V18.6899C26.9373 18.3636 27.2132 18.0984 27.5527 18.0984H30.0144C30.3539 18.0984 30.6298 18.3636 30.6298 18.6899C30.6298 19.0162 30.3539 19.2814 30.0144 19.2814H28.1682V20.4645H29.1938C29.5333 20.4645 29.8093 20.7297 29.8093 21.056C29.8093 21.3823 29.5333 21.6475 29.1938 21.6475H28.1682V22.8306H30.0144C30.3539 22.8306 30.6298 23.0958 30.6298 23.4221C30.6298 23.7484 30.3539 24.0136 30.0144 24.0136H27.5527Z" fill="#2EAEAC"/>
<path d="M22.6288 24.0136C22.2893 24.0136 22.0134 23.7484 22.0134 23.4221V18.6899C22.0134 18.3636 22.2893 18.0984 22.6288 18.0984H25.0904C25.4299 18.0984 25.7058 18.3636 25.7058 18.6899C25.7058 19.0162 25.4299 19.2814 25.0904 19.2814H23.2442V20.4645H24.2699C24.6094 20.4645 24.8853 20.7297 24.8853 21.056C24.8853 21.3823 24.6094 21.6475 24.2699 21.6475H23.2442V22.8306H25.0904C25.4299 22.8306 25.7058 23.0958 25.7058 23.4221C25.7058 23.7484 25.4299 24.0136 25.0904 24.0136H22.6288Z" fill="#2EAEAC"/>
</svg>
