<svg width="51" height="50" viewBox="0 0 51 50" fill="none" xmlns="http://www.w3.org/2000/svg">
<path d="M25.6805 26.7388C25.6101 26.7236 25.538 26.7208 25.4668 26.7315C24.7531 26.6484 24.2147 26.0446 24.2135 25.3263C24.2135 24.9821 23.9344 24.703 23.5902 24.703C23.2459 24.703 22.9669 24.9821 22.9669 25.3263C22.9687 26.5257 23.771 27.5764 24.9275 27.8938V28.5171C24.9275 28.8613 25.2066 29.1404 25.5508 29.1404C25.895 29.1404 26.1741 28.8613 26.1741 28.5171V27.9315C27.509 27.6521 28.4163 26.4089 28.276 25.0524C28.1353 23.6959 26.9925 22.665 25.6287 22.6647C24.8471 22.6647 24.2135 22.0311 24.2135 21.2495C24.2135 20.4679 24.8471 19.8343 25.6287 19.8343C26.4103 19.8343 27.0439 20.4679 27.0439 21.2495C27.0439 21.5937 27.323 21.8728 27.6673 21.8728C28.0115 21.8728 28.2906 21.5937 28.2906 21.2495C28.2887 19.9901 27.4064 18.9039 26.1741 18.644V18.0766C26.1741 17.7324 25.895 17.4533 25.5508 17.4533C25.2066 17.4533 24.9275 17.7324 24.9275 18.0766V18.682C23.6413 19.0332 22.8135 20.282 22.9906 21.6035C23.1677 22.925 24.2954 23.9114 25.6287 23.9111C26.3999 23.9111 27.029 24.5286 27.043 25.2995C27.0573 26.0704 26.4511 26.7108 25.6805 26.7388Z" fill="#75C137"/>
<path d="M16.5899 23.3358C16.5899 28.3278 20.6365 32.3744 25.6285 32.3744C30.6204 32.3744 34.6671 28.3278 34.6671 23.3358C34.6671 18.3438 30.6204 14.2972 25.6285 14.2972C20.6389 14.3027 16.5956 18.3463 16.5899 23.3358ZM25.6285 15.5438C29.932 15.5438 33.4205 19.0323 33.4205 23.3358C33.4205 27.6393 29.932 31.1278 25.6285 31.1278C21.325 31.1278 17.8365 27.6393 17.8365 23.3358C17.8414 19.0344 21.3271 15.5487 25.6285 15.5438Z" fill="#75C137"/>
<path d="M37.7401 33.9111L32.8574 36.2181C32.1833 34.9641 30.8901 34.1661 29.467 34.126L24.9595 34.0021C24.2458 33.9817 23.5455 33.8009 22.9109 33.4731L22.4523 33.2354C20.1039 32.0113 17.3048 32.0144 14.9589 33.2433L14.9875 32.2043C14.9969 31.8601 14.7257 31.5734 14.3815 31.5639L9.43886 31.4279C9.09464 31.4185 8.80824 31.6896 8.79881 32.0339L8.50024 42.8803C8.4908 43.2245 8.76198 43.5112 9.1062 43.5207L14.0489 43.6567H14.0659C14.4037 43.6567 14.6801 43.388 14.6892 43.0504L14.7035 42.5315L15.9876 41.844C16.4916 41.5728 17.0808 41.5083 17.6314 41.6641L25.2992 43.8162C25.3126 43.8201 25.326 43.8232 25.3397 43.8262C25.8939 43.9422 26.4588 44.0003 27.0249 44C28.224 44.0006 29.4091 43.7422 30.499 43.2419C30.5258 43.2297 30.5517 43.2154 30.5763 43.1993L41.694 36.0081C41.9709 35.8288 42.0604 35.4651 41.8982 35.1778C41.0728 33.7133 39.2421 33.1554 37.7401 33.9111ZM9.7636 42.2917L10.0278 32.6913L13.7241 32.7929L13.4599 42.3937L9.7636 42.2917ZM29.9375 42.1286C28.5834 42.7397 27.0711 42.9083 25.6157 42.611L17.9686 40.4644C17.1079 40.2212 16.1866 40.3219 15.3993 40.7453L14.7431 41.0968L14.9187 34.7137C16.998 33.3307 19.6647 33.1886 21.8792 34.3424L22.3379 34.5801C23.1395 34.994 24.0237 35.2222 24.9254 35.2484L29.4332 35.3723C30.6993 35.4088 31.7746 36.3103 32.0314 37.5508L25.3171 37.3655C24.9729 37.356 24.6865 37.6275 24.6768 37.9714C24.6674 38.3157 24.9388 38.6024 25.2828 38.6118L32.6925 38.8157H32.7098C33.0473 38.8154 33.3234 38.5467 33.3325 38.2094C33.3401 37.9386 33.32 37.6674 33.2723 37.4008L38.2804 35.0344C38.2852 35.0323 38.2901 35.0299 38.295 35.0274C39.0053 34.668 39.8642 34.7882 40.4486 35.3291L29.9375 42.1286Z" fill="#75C137"/>
<path d="M26.2505 12.5448V6.62331C26.2505 6.27909 25.9714 6 25.6272 6C25.283 6 25.0039 6.27909 25.0039 6.62331V12.5448C25.0039 12.889 25.283 13.1681 25.6272 13.1681C25.9714 13.1681 26.2505 12.889 26.2505 12.5448Z" fill="#75C137"/>
<path d="M30.9263 12.5447V9.73984C30.9263 9.39562 30.6472 9.11653 30.303 9.11653C29.9588 9.11653 29.6797 9.39562 29.6797 9.73984V12.5447C29.6797 12.889 29.9588 13.168 30.303 13.168C30.6472 13.168 30.9263 12.889 30.9263 12.5447Z" fill="#75C137"/>
<path d="M21.5769 12.5447V9.73984C21.5769 9.39562 21.2978 9.11653 20.9535 9.11653C20.6093 9.11653 20.3302 9.39562 20.3302 9.73984V12.5447C20.3302 12.889 20.6093 13.1681 20.9535 13.1681C21.2978 13.1681 21.5769 12.889 21.5769 12.5447Z" fill="#75C137"/>
</svg>
