<svg width="50" height="50" viewBox="0 0 50 50" fill="none" xmlns="http://www.w3.org/2000/svg">
<path d="M18.1079 42C18.0173 42 17.926 41.9823 17.839 41.9459C17.5762 41.8358 17.4049 41.5768 17.4049 41.2893V36.6481C14.5459 35.8029 11.9725 34.052 10.1125 31.6752C8.07627 29.0733 7 25.9407 7 22.6161C7 14.5568 13.4877 8 21.462 8H28.5381C36.5123 8 43 14.5568 43 22.6161C43 25.1054 42.3696 27.5636 41.1772 29.7249C40.988 30.0677 40.5598 30.1907 40.2206 29.9995C39.8815 29.8084 39.7599 29.3755 39.949 29.0328C41.025 27.0826 41.5938 24.8637 41.5938 22.6161C41.5938 15.3404 35.737 9.42117 28.538 9.42117H21.462C14.263 9.42124 8.40625 15.3404 8.40625 22.6161C8.40625 28.6805 12.466 33.9438 18.279 35.4155C18.5918 35.4948 18.8112 35.7789 18.8112 36.1048V39.5737L22.3283 36.0192C22.4602 35.886 22.639 35.8111 22.8255 35.8111H28.5381C31.196 35.8111 33.7533 35.009 35.9336 33.4916C36.2534 33.269 36.6913 33.3506 36.9115 33.6738C37.1317 33.997 37.051 34.4395 36.7312 34.6621C34.3153 36.3436 31.4822 37.2323 28.5381 37.2323H23.1168L18.6053 41.7918C18.4708 41.9278 18.2909 42 18.1079 42Z" fill="#F25334"/>
<path d="M38.7152 32.6846C38.5302 32.6846 38.3488 32.6086 38.218 32.4764C38.0873 32.3442 38.012 32.1609 38.012 31.974C38.012 31.7871 38.0873 31.6037 38.218 31.4716C38.3488 31.3394 38.5302 31.2634 38.7152 31.2634C38.9001 31.2634 39.0815 31.3394 39.2123 31.4716C39.343 31.6037 39.4183 31.7871 39.4183 31.974C39.4183 32.1609 39.343 32.3442 39.2123 32.4764C39.0815 32.6086 38.9001 32.6846 38.7152 32.6846Z" fill="#F25334"/>
<path d="M25.2182 21.9055H25.0339V19.2162C25.0339 18.8237 24.7191 18.5056 24.3308 18.5056C23.9424 18.5056 23.6276 18.8237 23.6276 19.2162V21.9055H21.427V19.2162C21.427 18.8237 21.1122 18.5056 20.7239 18.5056C20.3355 18.5056 20.0208 18.8237 20.0208 19.2162V22.6161C20.0208 23.0086 20.3355 23.3268 20.7239 23.3268H23.6276V26.0237C23.6276 26.4161 23.9424 26.7343 24.3308 26.7343C24.7191 26.7343 25.0339 26.4161 25.0339 26.0237V23.3268H25.2182C25.6065 23.3268 25.9213 23.0086 25.9213 22.6161C25.9213 22.2237 25.6064 21.9055 25.2182 21.9055Z" fill="#F25334"/>
<path d="M17.3665 26.7343H13.9987C13.7144 26.7343 13.4579 26.5611 13.3491 26.2956C13.2402 26.0301 13.3004 25.7244 13.5014 25.5212L15.6785 23.3209C16.3136 22.679 16.6633 21.8257 16.6633 20.9181C16.6633 20.3716 16.2233 19.9269 15.6825 19.9269C15.1418 19.9269 14.7017 20.3715 14.7017 20.9181C14.7017 21.3106 14.387 21.6287 13.9986 21.6287C13.6103 21.6287 13.2955 21.3106 13.2955 20.9181C13.2955 19.5879 14.3663 18.5056 15.6825 18.5056C16.9988 18.5056 18.0696 19.5878 18.0696 20.9181C18.0696 22.2053 17.5736 23.4156 16.673 24.3259L15.6961 25.3132H17.3665C17.7548 25.3132 18.0696 25.6313 18.0696 26.0238C18.0696 26.4163 17.7549 26.7343 17.3665 26.7343Z" fill="#F25334"/>
<path d="M32.6329 26.7344C32.5272 26.7344 32.4199 26.7103 32.319 26.6592C31.9717 26.4837 31.8309 26.0568 32.0046 25.7058L34.8636 19.9267H32.6335C32.2451 19.9267 31.9304 19.6086 31.9304 19.2161C31.9304 18.8236 32.2451 18.5055 32.6335 18.5055H36.0013C36.245 18.5055 36.4713 18.633 36.5994 18.8425C36.7275 19.052 36.7392 19.3136 36.6302 19.5339L33.2624 26.3414C33.1392 26.5904 32.8908 26.7344 32.6329 26.7344Z" fill="#F25334"/>
<path d="M27.5552 27.875C27.4949 27.875 27.4337 27.8671 27.3727 27.8506C26.9977 27.749 26.775 27.3593 26.8755 26.9802L29.287 17.8843C29.3875 17.5052 29.7731 17.2802 30.1482 17.3818C30.5233 17.4833 30.7459 17.873 30.6454 18.2521L28.2339 27.3481C28.1497 27.6655 27.8656 27.875 27.5552 27.875Z" fill="#F25334"/>
</svg>
