<svg width="41" height="40" viewBox="0 0 41 40" fill="none" xmlns="http://www.w3.org/2000/svg">
<g clip-path="url(#clip0_402_3834)">
<path d="M40.5 0H0.5V40H40.5V0Z" fill="url(#paint0_radial_402_3834)"/>
<path d="M40.5 0H0.5V40H40.5V0Z" fill="url(#paint1_radial_402_3834)"/>
<path d="M20.5 8.73494C24.1446 8.73494 24.6416 8.73494 26.1325 8.73494C27.4578 8.73494 28.1205 9.06627 28.6175 9.23193C29.2801 9.56325 29.7771 9.72892 30.2741 10.2259C30.7711 10.7229 31.1024 11.2199 31.2681 11.8825C31.4337 12.3795 31.5994 13.0422 31.7651 14.3675C31.7651 15.8584 31.7651 16.1898 31.7651 20C31.7651 23.8102 31.7651 24.1416 31.7651 25.6325C31.7651 26.9578 31.4337 27.6205 31.2681 28.1175C30.9368 28.7801 30.7711 29.2771 30.2741 29.7741C29.7771 30.2711 29.2801 30.6024 28.6175 30.7681C28.1205 30.9337 27.4578 31.0994 26.1325 31.2651C24.6416 31.2651 24.3102 31.2651 20.5 31.2651C16.6898 31.2651 16.3584 31.2651 14.8675 31.2651C13.5422 31.2651 12.8795 30.9337 12.3825 30.7681C11.7199 30.4368 11.2229 30.2711 10.7259 29.7741C10.2289 29.2771 9.89759 28.7801 9.73193 28.1175C9.56627 27.6205 9.4006 26.9578 9.23494 25.6325C9.23494 24.1416 9.23494 23.8102 9.23494 20C9.23494 16.1898 9.23494 15.8584 9.23494 14.3675C9.23494 13.0422 9.56627 12.3795 9.73193 11.8825C10.0633 11.2199 10.2289 10.7229 10.7259 10.2259C11.2229 9.72892 11.7199 9.39759 12.3825 9.23193C12.8795 9.06627 13.5422 8.9006 14.8675 8.73494C16.3584 8.73494 16.8554 8.73494 20.5 8.73494ZM20.5 6.25C16.6898 6.25 16.3584 6.25 14.8675 6.25C13.3765 6.25 12.3825 6.58133 11.5542 6.91265C10.7259 7.24398 9.89759 7.74097 9.06928 8.56928C8.24097 9.39759 7.90964 10.0602 7.41265 11.0542C7.08133 11.8825 6.91566 12.8765 6.75 14.3675C6.75 15.8584 6.75 16.3554 6.75 20C6.75 23.8102 6.75 24.1416 6.75 25.6325C6.75 27.1235 7.08133 28.1175 7.41265 28.9458C7.74398 29.7741 8.24097 30.6024 9.06928 31.4307C9.89759 32.259 10.5602 32.5904 11.5542 33.0874C12.3825 33.4187 13.3765 33.5843 14.8675 33.75C16.3584 33.75 16.8554 33.75 20.5 33.75C24.1446 33.75 24.6416 33.75 26.1325 33.75C27.6235 33.75 28.6175 33.4187 29.4458 33.0874C30.2741 32.756 31.1024 32.259 31.9307 31.4307C32.759 30.6024 33.0904 29.9398 33.5874 28.9458C33.9187 28.1175 34.0843 27.1235 34.25 25.6325C34.25 24.1416 34.25 23.6446 34.25 20C34.25 16.3554 34.25 15.8584 34.25 14.3675C34.25 12.8765 33.9187 11.8825 33.5874 11.0542C33.256 10.2259 32.759 9.39759 31.9307 8.56928C31.1024 7.74097 30.4398 7.40964 29.4458 6.91265C28.6175 6.58133 27.6235 6.41566 26.1325 6.25C24.6416 6.25 24.3102 6.25 20.5 6.25Z" fill="white"/>
<path d="M20.5 12.8765C16.5241 12.8765 13.3765 16.0241 13.3765 20C13.3765 23.9759 16.5241 27.1235 20.5 27.1235C24.4759 27.1235 27.6235 23.9759 27.6235 20C27.6235 16.0241 24.4759 12.8765 20.5 12.8765ZM20.5 24.6386C18.0151 24.6386 15.8614 22.6506 15.8614 20C15.8614 17.5151 17.8494 15.3614 20.5 15.3614C22.9849 15.3614 25.1386 17.3494 25.1386 20C25.1386 22.4849 22.9849 24.6386 20.5 24.6386Z" fill="white"/>
<path d="M27.7892 14.3675C28.7041 14.3675 29.4458 13.6258 29.4458 12.7108C29.4458 11.7959 28.7041 11.0542 27.7892 11.0542C26.8742 11.0542 26.1325 11.7959 26.1325 12.7108C26.1325 13.6258 26.8742 14.3675 27.7892 14.3675Z" fill="white"/>
</g>
<rect x="1" y="0.5" width="39" height="39" rx="11.5" stroke="black" stroke-opacity="0.1"/>
<defs>
<radialGradient id="paint0_radial_402_3834" cx="0" cy="0" r="1" gradientUnits="userSpaceOnUse" gradientTransform="translate(14.6667 41.6667) rotate(-81.5289) scale(39.5987)">
<stop stop-color="#FFDD55"/>
<stop offset="0.1" stop-color="#FFDD55"/>
<stop offset="0.517936" stop-color="#FF442C"/>
<stop offset="1" stop-color="#FF1ED2"/>
</radialGradient>
<radialGradient id="paint1_radial_402_3834" cx="0" cy="0" r="1" gradientUnits="userSpaceOnUse" gradientTransform="translate(8.83333 -2.5) rotate(77.1957) scale(18.8009 52.2426)">
<stop offset="0.096473" stop-color="#7000C9"/>
<stop offset="0.408416" stop-color="#9A00E2" stop-opacity="0.723958"/>
<stop offset="0.975495" stop-color="#AD00FF" stop-opacity="0"/>
</radialGradient>
<clipPath id="clip0_402_3834">
<rect x="0.5" width="40" height="40" rx="12" fill="white"/>
</clipPath>
</defs>
</svg>
