<svg width="41" height="40" viewBox="0 0 41 40" fill="none" xmlns="http://www.w3.org/2000/svg">
<path d="M20.5 0C12.23 0 5.5 6.77667 5.5 15.1083C5.5 26.9467 19.09 39.17 19.6683 39.6833C19.9067 39.895 20.2033 40 20.5 40C20.7967 40 21.0933 39.895 21.3317 39.685C21.91 39.17 35.5 26.9467 35.5 15.1083C35.5 6.77667 28.77 0 20.5 0ZM20.5 23.3333C15.905 23.3333 12.1667 19.595 12.1667 15C12.1667 10.405 15.905 6.66667 20.5 6.66667C25.095 6.66667 28.8333 10.405 28.8333 15C28.8333 19.595 25.095 23.3333 20.5 23.3333Z" fill="#CFE292"/>
</svg>
