<svg width="21" height="20" viewBox="0 0 21 20" fill="none" xmlns="http://www.w3.org/2000/svg">
<path d="M9.41668 1.62933C9.74906 0.960353 10.7034 0.960352 11.0358 1.62933L12.9501 5.48234C13.0818 5.74725 13.3347 5.93101 13.6273 5.97433L17.8833 6.60437C18.6223 6.71376 18.9172 7.62136 18.3836 8.1442L15.3108 11.1555C15.0995 11.3626 15.0029 11.6599 15.0521 11.9516L15.7681 16.194C15.8924 16.9306 15.1204 17.4915 14.4582 17.1456L10.6447 15.1537C10.3825 15.0168 10.0699 15.0168 9.80771 15.1537L5.9942 17.1456C5.33208 17.4915 4.56003 16.9306 4.68434 16.194L5.40031 11.9516C5.44954 11.6599 5.35294 11.3626 5.14166 11.1555L2.06881 8.1442C1.53528 7.62136 1.83018 6.71376 2.56913 6.60437L6.82513 5.97433C7.11776 5.93101 7.37067 5.74725 7.5023 5.48234L9.41668 1.62933Z" fill="#F25334"/>
</svg>
