<svg width="41" height="41" viewBox="0 0 41 41" fill="none" xmlns="http://www.w3.org/2000/svg">
<g clip-path="url(#clip0_150_3739)">
<path d="M1.42924 40.5C1.20463 40.5 0.986124 40.4112 0.824076 40.2473C0.610454 40.0312 0.528056 39.7175 0.608317 39.4243L3.20872 29.9284C1.58976 27.0009 0.736186 23.6891 0.737407 20.3273C0.741984 9.39435 9.63906 0.5 20.5711 0.5C25.8735 0.502136 30.8558 2.56757 34.6006 6.31512C38.3448 10.063 40.4059 15.045 40.4044 20.3431C40.3995 31.2764 31.5024 40.1713 20.5711 40.1713C20.5711 40.1713 20.5628 40.1713 20.5625 40.1713C17.3695 40.1701 14.2039 39.3919 11.3853 37.9179L1.645 40.4722C1.57359 40.4908 1.50096 40.5 1.42924 40.5Z" fill="white"/>
<path d="M1.42969 39.6487L4.12256 29.8151C2.46149 26.9369 1.58777 23.6722 1.58899 20.3275C1.59326 9.86393 10.1083 1.35107 20.5716 1.35107C25.6491 1.35321 30.415 3.32952 33.999 6.91655C37.5827 10.5036 39.5557 15.2716 39.5538 20.3427C39.5492 30.806 31.033 39.32 20.5716 39.32C20.5709 39.32 20.5719 39.32 20.5716 39.32H20.5633C17.3864 39.3188 14.2651 38.522 11.4926 37.0099L1.42969 39.6487ZM11.9586 33.5745L12.535 33.916C14.9569 35.3534 17.7337 36.1136 20.5655 36.1151H20.5716C29.2672 36.1151 36.3449 29.0387 36.3486 20.3415C36.3501 16.1267 34.7107 12.1634 31.7319 9.18217C28.7527 6.20092 24.7918 4.55816 20.5774 4.55633C11.8746 4.55633 4.79731 11.6318 4.79395 20.3287C4.79273 23.309 5.62647 26.2112 7.20606 28.7228L7.58143 29.3198L5.98719 35.1401L11.9586 33.5745Z" fill="white"/>
<path d="M2.08984 38.9862L4.68963 29.4925C3.08563 26.7142 2.24243 23.562 2.24335 20.3336C2.24731 10.2322 10.4678 2.01416 20.5682 2.01416C25.4706 2.0163 30.0717 3.92426 33.5309 7.38708C36.9909 10.8499 38.8952 15.4529 38.8934 20.3479C38.8891 30.4495 30.6683 38.6685 20.5691 38.6685C20.5682 38.6685 20.5694 38.6685 20.5691 38.6685H20.5609C17.4942 38.6673 14.4806 37.8976 11.8042 36.4389L2.08984 38.9862Z" fill="#64B161"/>
<path d="M1.42969 39.6487L4.12256 29.8151C2.46149 26.9369 1.58777 23.6722 1.58899 20.3275C1.59326 9.86393 10.1083 1.35107 20.5716 1.35107C25.6491 1.35321 30.415 3.32952 33.999 6.91655C37.5827 10.5036 39.5557 15.2716 39.5538 20.3427C39.5492 30.806 31.033 39.32 20.5716 39.32C20.5709 39.32 20.5719 39.32 20.5716 39.32H20.5633C17.3864 39.3188 14.2651 38.522 11.4926 37.0099L1.42969 39.6487ZM11.9586 33.5745L12.535 33.916C14.9569 35.3534 17.7337 36.1136 20.5655 36.1151H20.5716C29.2672 36.1151 36.3449 29.0387 36.3486 20.3415C36.3501 16.1267 34.7107 12.1634 31.7319 9.18217C28.7527 6.20092 24.7918 4.55816 20.5774 4.55633C11.8746 4.55633 4.79731 11.6318 4.79395 20.3287C4.79273 23.309 5.62647 26.2112 7.20606 28.7228L7.58143 29.3198L5.98719 35.1401L11.9586 33.5745Z" fill="white"/>
<path fill-rule="evenodd" clip-rule="evenodd" d="M15.8272 12.3942C15.472 11.6044 15.0978 11.5885 14.7597 11.5748C14.4832 11.5629 14.1667 11.5635 13.8509 11.5635C13.5347 11.5635 13.0208 11.6825 12.5862 12.1571C12.1514 12.6316 10.9258 13.7791 10.9258 16.1128C10.9258 18.4468 12.6256 20.7017 12.8627 21.0185C13.0998 21.335 16.144 26.277 20.9648 28.1783C24.9715 29.7585 25.7866 29.4441 26.6563 29.3651C27.5261 29.286 29.4624 28.2176 29.8576 27.1101C30.2531 26.0026 30.2531 25.0535 30.1344 24.8549C30.0157 24.6574 29.6995 24.5387 29.2253 24.3016C28.7511 24.0645 26.4192 22.9167 25.9843 22.7586C25.5495 22.6002 25.2333 22.5215 24.9171 22.9963C24.6007 23.4706 23.6925 24.5387 23.4157 24.8549C23.1389 25.1719 22.8621 25.2116 22.3879 24.9742C21.9136 24.7365 20.3859 24.236 18.5738 22.6201C17.1639 21.363 16.2117 19.8103 15.9349 19.3354C15.6584 18.8612 15.9303 18.6268 16.1434 18.3677C16.527 17.9011 17.1706 17.0622 17.3287 16.746C17.4867 16.4292 17.4077 16.1524 17.2893 15.915C17.1706 15.6779 16.2486 13.3323 15.8272 12.3942Z" fill="white"/>
</g>
<defs>
<clipPath id="clip0_150_3739">
<rect width="40" height="40" fill="white" transform="translate(0.5 0.5)"/>
</clipPath>
</defs>
</svg>
